<?xml version="1.0" standalone="no"?><!DOCTYPE svg PUBLIC "-//W3C//DTD SVG 1.1//EN" "http://www.w3.org/Graphics/SVG/1.1/DTD/svg11.dtd"><svg class="icon" width="200px" height="200.00px" viewBox="0 0 1024 1024" version="1.1" xmlns="http://www.w3.org/2000/svg"><path fill="#333333" d="M665.250336 102.923114l-306.664402 0c-56.485479 0-102.33062 45.845141-102.33062 102.33062l0 613.492532c0 56.485479 45.845141 102.33062 102.33062 102.33062l306.828131 0c56.485479 0 102.33062-45.845141 102.33062-102.33062l0-613.656261C767.580956 148.604526 721.735815 102.923114 665.250336 102.923114L665.250336 102.923114zM506.269485 818.746266c-15.061021 0-27.176966-12.115945-27.176966-27.177989 0-15.066137 12.115945-27.182083 27.176966-27.182083 15.062044 0 27.177989 12.115945 27.177989 27.182083C533.611204 806.630321 521.331529 818.746266 506.269485 818.746266L506.269485 818.746266zM716.499557 716.415646 305.865199 716.415646l1.635243-511.325641 408.999115 0L716.499557 716.415646 716.499557 716.415646zM716.499557 716.415646" /></svg>